<?xml version="1.0" standalone="no"?>
<!DOCTYPE svg PUBLIC "-//W3C//DTD SVG 20010904//EN"
 "http://www.w3.org/TR/2001/REC-SVG-20010904/DTD/svg10.dtd">
<svg version="1.0" xmlns="http://www.w3.org/2000/svg"
 width="150.000000pt" height="150.000000pt" viewBox="0 0 150.000000 150.000000"
 preserveAspectRatio="xMidYMid meet">
<metadata>
Created by potrace 1.11, written by Peter Selinger 2001-2013
</metadata>
<g transform="translate(0.000000,150.000000) scale(0.100000,-0.100000)"
fill="#000000" stroke="none">
<path d="M551 1070 c-18 -4 -43 -13 -55 -18 -11 -6 -29 -13 -38 -16 -22 -6
-51 -63 -44 -83 5 -12 9 -13 21 -3 8 7 22 10 30 6 9 -3 34 3 55 14 56 29 88
26 100 -7 6 -16 17 -40 25 -55 8 -14 15 -29 15 -32 0 -11 -49 -6 -56 5 -4 7
-22 8 -48 5 -37 -6 -80 -12 -113 -15 -15 -1 -17 -30 -3 -51 7 -12 13 -12 33
-1 29 15 47 8 47 -19 0 -21 -29 -34 -55 -24 -16 7 -17 3 -13 -32 3 -22 15 -60
27 -84 l21 -45 -20 -15 -20 -15 31 -105 c31 -100 32 -107 20 -175 -6 -38 -14
-101 -16 -140 -3 -38 -7 -91 -10 -118 l-4 -47 306 0 305 0 -7 80 c-4 44 -4 80
1 80 4 0 23 -17 42 -37 33 -37 34 -43 17 -101 l-8 -23 109 3 108 3 18 55 c29
93 26 100 -56 184 -47 47 -97 86 -137 107 -73 38 -165 103 -173 124 -2 7 -35
31 -73 53 -64 37 -114 88 -172 170 -19 27 -28 32 -47 28 -18 -5 -22 -3 -18 8
3 8 1 17 -5 21 -6 3 -11 17 -11 31 0 21 4 24 19 19 30 -9 53 34 59 114 6 83
-5 106 -63 131 -57 24 -102 31 -144 20z m109 -236 c0 -20 -16 -51 -51 -95 -16
-20 -26 -39 -22 -42 10 -10 -18 -37 -38 -37 -11 0 -19 3 -19 6 0 15 22 44 34
44 8 0 16 12 19 27 4 21 -2 33 -24 54 l-30 28 38 7 c21 3 45 10 53 15 24 13
40 10 40 -7z"/>
</g>
</svg>
